<svg width="48" height="48" viewBox="0 0 48 48" fill="none" xmlns="http://www.w3.org/2000/svg">
<circle cx="24" cy="24" r="24" fill="#797979"/>
<path d="M34.7748 14H13.112C11.9371 14 11 14.7138 11 15.5938V32.3316C11 33.2461 11.9661 33.9914 13.1468 33.9914H34.9402C35.9701 34.0888 36.8898 33.3493 37 32.3316V15.5938C37 14.7138 35.9991 14 34.7632 14H34.7748ZM19.5584 17.7323C20.7391 17.7294 21.7023 18.6725 21.7052 19.8392C21.7081 21.0059 20.7536 21.9576 19.5729 21.9604C18.3921 21.9633 17.4289 21.0202 17.426 19.8535V19.8478C17.426 18.6811 18.3805 17.738 19.5584 17.7323ZM32.8166 31.6007H15.2241C14.5423 31.6007 14.4059 31.2108 14.8643 30.7464L18.6387 26.8221C19.1232 26.3491 19.8775 26.2775 20.4432 26.653L23.2225 28.5908C23.7795 28.972 24.5367 28.8717 24.9748 28.3615L31.4124 20.6533C31.836 20.1488 32.2566 20.2634 32.3524 20.8969L33.8233 30.4712C33.9074 31.0073 33.5331 31.5089 32.9906 31.5921C32.9355 31.6007 32.8746 31.6035 32.8166 31.6007Z" fill="white"/>
</svg>
