<svg width="25" height="24" viewBox="0 0 25 24" fill="none" xmlns="http://www.w3.org/2000/svg">
<g id="vuesax/bold/messages-2">
<g id="messages-2">
<path id="Vector" d="M18.9699 16.83L19.3599 19.99C19.4599 20.82 18.5699 21.4 17.8599 20.97L14.3999 18.91C14.1599 18.77 14.0999 18.47 14.2299 18.23C14.7299 17.31 14.9999 16.27 14.9999 15.23C14.9999 11.57 11.8599 8.59 7.99989 8.59C7.20989 8.59 6.43989 8.71 5.71989 8.95C5.34989 9.07 4.98989 8.73 5.07989 8.35C5.98989 4.71 9.48989 2 13.6699 2C18.5499 2 22.4999 5.69 22.4999 10.24C22.4999 12.94 21.1099 15.33 18.9699 16.83Z" fill="#20242A"/>
<path id="Vector_2" d="M13.5 15.2301C13.5 16.4201 13.06 17.5201 12.32 18.3901C11.33 19.5901 9.76 20.3601 8 20.3601L5.39 21.9101C4.95 22.1801 4.39 21.8101 4.45 21.3001L4.7 19.3301C3.36 18.4001 2.5 16.9101 2.5 15.2301C2.5 13.4701 3.44 11.9201 4.88 11.0001C5.77 10.4201 6.84 10.0901 8 10.0901C11.04 10.0901 13.5 12.3901 13.5 15.2301Z" fill="#20242A"/>
</g>
</g>
</svg>
