<svg width="25" height="24" viewBox="0 0 25 24" fill="none" xmlns="http://www.w3.org/2000/svg">
<path d="M22.25 6V18C22.25 18.3978 22.092 18.7794 21.8107 19.0607C21.5294 19.342 21.1479 19.5 20.75 19.5H8.28128L5.22503 22.14L5.21659 22.1466C4.94662 22.3755 4.60397 22.5008 4.25003 22.5C4.02997 22.4996 3.81268 22.451 3.61346 22.3575C3.35434 22.2381 3.13511 22.0466 2.98198 21.8058C2.82886 21.5651 2.74833 21.2853 2.75003 21V6C2.75003 5.60218 2.90806 5.22064 3.18937 4.93934C3.47067 4.65804 3.8522 4.5 4.25003 4.5H20.75C21.1479 4.5 21.5294 4.65804 21.8107 4.93934C22.092 5.22064 22.25 5.60218 22.25 6Z" fill="#126BF6"/>
</svg>
