<svg width="56" height="56" viewBox="0 0 56 56" fill="none" xmlns="http://www.w3.org/2000/svg">
<path d="M0 28C0 12.536 12.536 0 28 0C43.464 0 56 12.536 56 28C56 43.464 43.464 56 28 56C12.536 56 0 43.464 0 28Z" fill="white"/>
<path fill-rule="evenodd" clip-rule="evenodd" d="M16 18.7693C16 17.2399 17.2399 16 18.7693 16H37.2313C38.7607 16 40.0006 17.2399 40.0006 18.7693V37.2313C40.0006 38.7607 38.7607 40.0006 37.2313 40.0006H18.7693C17.2399 40.0006 16 38.7607 16 37.2313V18.7693ZM21.5034 23.243C21.7764 22.97 22.1466 22.8166 22.5327 22.8166H29.9885C30.3745 22.8166 30.7448 22.97 31.0178 23.243C31.2908 23.516 31.4441 23.8862 31.4441 24.2723V25.3025L33.5959 24.3488L33.5976 24.348C34.2786 24.0416 34.9235 24.6113 34.9235 25.2366V30.7638C34.9235 31.3981 34.2596 31.9086 33.6197 31.6616L33.5987 31.6535L31.4441 30.6979V31.7281C31.4441 32.1141 31.2908 32.4844 31.0178 32.7574C30.7448 33.0304 30.3745 33.1837 29.9885 33.1837H22.5327C22.1466 33.1837 21.7764 33.0304 21.5034 32.7574C21.2304 32.4844 21.077 32.1141 21.077 31.7281V24.2723C21.077 23.8862 21.2304 23.516 21.5034 23.243Z" fill="#42B5E6"/>
</svg>
