<svg width="56" height="56" viewBox="0 0 56 56" fill="none" xmlns="http://www.w3.org/2000/svg">
<path d="M0 28C0 12.536 12.536 0 28 0C43.464 0 56 12.536 56 28C56 43.464 43.464 56 28 56C12.536 56 0 43.464 0 28Z" fill="white"/>
<path fill-rule="evenodd" clip-rule="evenodd" d="M21.322 16H26.8464V22.586H16.4485L18.8195 17.5832C19.2778 16.6164 20.252 16 21.322 16ZM16 24.8937V37.3732C16 38.07 16.2768 38.7383 16.7695 39.2311C17.2622 39.7238 17.9305 40.0006 18.6273 40.0006H37.3732C38.07 40.0006 38.7383 39.7238 39.2311 39.2311C39.7238 38.7383 40.0006 38.07 40.0006 37.3732V24.8937H28.0023H28.0003H27.9982H16ZM29.1542 22.586H39.5521L37.181 17.5832C36.7228 16.6164 35.7486 16 34.6785 16H29.1542V22.586ZM28.0007 36.9473C27.236 36.9473 26.6161 36.3274 26.6161 35.5627V32.3321H24.7691C24.3958 32.3321 24.0592 32.1072 23.9163 31.7623C23.7734 31.4174 23.8524 31.0203 24.1164 30.7563L27.3476 27.5251C27.7081 27.1646 28.2926 27.1646 28.6531 27.5251L31.8843 30.7563C32.1483 31.0203 32.2273 31.4174 32.0844 31.7623C31.9415 32.1072 31.6049 32.3321 31.2316 32.3321H29.3854V35.5627C29.3854 36.3274 28.7655 36.9473 28.0007 36.9473Z" fill="#F05956"/>
</svg>
