<svg width="56" height="56" viewBox="0 0 56 56" fill="none" xmlns="http://www.w3.org/2000/svg">
<path d="M0 28C0 12.536 12.536 0 28 0C43.464 0 56 12.536 56 28C56 43.464 43.464 56 28 56C12.536 56 0 43.464 0 28Z" fill="white"/>
<path fill-rule="evenodd" clip-rule="evenodd" d="M22.7536 16.7532C23.2358 16.2709 23.8899 16 24.5719 16H32.2862C32.5135 16 32.7315 16.0903 32.8923 16.2511L38.0352 21.3939C38.1958 21.5546 38.2862 21.7727 38.2862 22V33.1429C38.2862 33.8248 38.0153 34.479 37.5331 34.9612C37.0509 35.4434 36.3967 35.7143 35.7147 35.7143H24.5719C23.8899 35.7143 23.2358 35.4434 22.7536 34.9612C22.2714 34.479 22.0005 33.8248 22.0005 33.1429V18.5714C22.0005 17.8894 22.2714 17.2354 22.7536 16.7532ZM20.2863 22.4286C20.2863 21.7185 19.7106 21.1429 19.0006 21.1429C18.2905 21.1429 17.7148 21.7185 17.7148 22.4286V36.1429C17.7148 38.273 19.4417 40 21.572 40H32.7148C33.425 40 34.0006 39.4243 34.0006 38.7143C34.0006 38.0042 33.425 37.4286 32.7148 37.4286H21.572C20.8619 37.4286 20.2863 36.8529 20.2863 36.1429V22.4286Z" fill="#45DE82"/>
</svg>
