<svg width="56" height="56" viewBox="0 0 56 56" fill="none" xmlns="http://www.w3.org/2000/svg">
<path d="M0 28C0 12.536 12.536 0 28 0C43.464 0 56 12.536 56 28C56 43.464 43.464 56 28 56C12.536 56 0 43.464 0 28Z" fill="white"/>
<path d="M23.0133 27.6297C22.9621 28.3192 23.0545 29.0119 23.2846 29.664C23.5147 30.3161 23.8776 30.9133 24.3503 31.418C24.823 31.9227 25.3952 32.3238 26.0308 32.5961C26.6664 32.8684 27.3516 33.0058 28.0431 32.9998C28.7345 32.9938 29.4172 32.8444 30.048 32.5612C30.6788 32.2779 31.244 31.8668 31.7078 31.354C32.1716 30.8412 32.5241 30.2377 32.7428 29.5817C32.9616 28.9258 33.0419 28.2316 32.9787 27.543C33.1222 27.5561 33.2669 27.5379 33.4027 27.4897C35.9565 26.5873 38.2306 25.0338 40 22.983V38.667C40 39.0172 39.931 39.3639 39.797 39.6875C39.663 40.011 39.4666 40.305 39.219 40.5526C38.9713 40.8002 38.6774 40.9967 38.3538 41.1307C38.0303 41.2647 37.6835 41.3337 37.3333 41.3337H18.6667C18.3165 41.3337 17.9697 41.2647 17.6462 41.1307C17.3226 40.9967 17.0287 40.8002 16.781 40.5526C16.5334 40.305 16.337 40.011 16.203 39.6875C16.069 39.3639 16 39.0172 16 38.667V22.9843C17.8674 25.1468 20.2937 26.7539 23.0133 27.6297ZM23.5573 25.7043C20.2467 24.6083 17.5773 22.355 16 19.499V17.3337C16 16.9835 16.069 16.6367 16.203 16.3132C16.337 15.9896 16.5334 15.6957 16.781 15.448C17.0287 15.2004 17.3226 15.004 17.6462 14.87C17.9697 14.736 18.3165 14.667 18.6667 14.667H37.3333C37.6835 14.667 38.0303 14.736 38.3538 14.87C38.6774 15.004 38.9713 15.2004 39.219 15.448C39.4666 15.6957 39.663 15.9896 39.797 16.3132C39.931 16.6367 40 16.9835 40 17.3337V19.5003C38.4707 22.2683 35.9133 24.4737 32.7333 25.6043C32.6372 25.6384 32.5468 25.6869 32.4653 25.7483C32.0506 24.9252 31.4163 24.2327 30.6327 23.7474C29.8491 23.262 28.9465 23.0028 28.0248 22.9982C27.1031 22.9937 26.198 23.244 25.4096 23.7216C24.6212 24.1991 23.9802 24.8853 23.5573 25.7043ZM28 30.667C27.6498 30.667 27.303 30.598 26.9795 30.464C26.656 30.33 26.362 30.1336 26.1144 29.8859C25.8668 29.6383 25.6703 29.3443 25.5363 29.0208C25.4023 28.6973 25.3333 28.3505 25.3333 28.0003C25.3333 27.6501 25.4023 27.3034 25.5363 26.9798C25.6703 26.6563 25.8668 26.3623 26.1144 26.1147C26.362 25.8671 26.656 25.6707 26.9795 25.5366C27.303 25.4026 27.6498 25.3337 28 25.3337C28.7072 25.3337 29.3855 25.6146 29.8856 26.1147C30.3857 26.6148 30.6667 27.2931 30.6667 28.0003C30.6667 28.7076 30.3857 29.3858 29.8856 29.8859C29.3855 30.386 28.7072 30.667 28 30.667Z" fill="#F05956"/>
</svg>
