<svg width="56" height="56" viewBox="0 0 56 56" fill="none" xmlns="http://www.w3.org/2000/svg">
<path d="M0 28C0 12.536 12.536 0 28 0C43.464 0 56 12.536 56 28C56 43.464 43.464 56 28 56C12.536 56 0 43.464 0 28Z" fill="white"/>
<path fill-rule="evenodd" clip-rule="evenodd" d="M16 24.5333C16 21.5464 16 20.0529 16.5813 18.9121C17.0926 17.9085 17.9085 17.0926 18.9121 16.5813C20.0529 16 21.5464 16 24.5333 16H31.4667C34.4536 16 35.9471 16 37.0879 16.5813C38.0915 17.0926 38.9074 17.9085 39.4187 18.9121C40 20.0529 40 21.5464 40 24.5333V29.2269C40 29.8674 40 30.1876 39.8663 30.3656C39.7497 30.5206 39.5715 30.6172 39.3779 30.6302C39.1558 30.6451 38.8876 30.4702 38.351 30.1206L34.5574 27.6484L34.4296 27.5649C33.9021 27.2194 33.3727 26.8728 32.7732 26.7398C32.2511 26.624 31.7088 26.6355 31.192 26.7734C30.5987 26.9317 30.0846 27.3006 29.5723 27.6681L29.4481 27.7571L26.1072 30.1424C25.4684 30.5986 25.3892 30.6351 25.3349 30.6518C25.2434 30.6799 25.1469 30.688 25.052 30.6755C24.9958 30.6681 24.9116 30.6452 24.2057 30.3017L23.5012 29.9589L23.3904 29.9047C22.9255 29.6774 22.458 29.4488 21.9496 29.3715C21.5057 29.304 21.0528 29.3269 20.618 29.4387C20.1199 29.5668 19.6778 29.8414 19.2382 30.1143L19.1334 30.1793L16.5531 31.7748C16.3115 31.9242 16 31.7506 16 31.4667V24.5333ZM16.6603 34.8438C16.4538 34.9714 16.3506 35.0353 16.2766 35.1311C16.2156 35.21 16.1659 35.3219 16.1481 35.4201C16.1266 35.5392 16.1458 35.6445 16.1842 35.855C16.2702 36.3262 16.3963 36.7249 16.5813 37.0879C17.0926 38.0915 17.9085 38.9074 18.9121 39.4187C20.0529 40 21.5464 40 24.5333 40H31.4667C34.4536 40 35.9471 40 37.0879 39.4187C38.0915 38.9074 38.9074 38.0915 39.4187 37.0879C39.71 36.5163 39.8553 35.856 39.9278 34.9637C39.9448 34.755 39.9533 34.6506 39.9274 34.5454C39.9052 34.4555 39.8597 34.3627 39.8022 34.2902C39.7348 34.2053 39.6414 34.1444 39.4547 34.0228L33.1015 29.8826C32.3513 29.3937 32.2571 29.3568 32.1958 29.3432C32.0914 29.32 31.9829 29.3223 31.8796 29.3499C31.819 29.3661 31.7264 29.407 30.9977 29.9273L27.6568 32.3127L27.5485 32.3902C27.0969 32.7141 26.6429 33.0395 26.1183 33.2008C25.6607 33.3414 25.1782 33.3818 24.7036 33.3193C24.1595 33.2476 23.6577 33.0021 23.1585 32.7579L23.0388 32.6995L22.3343 32.3567C21.6789 32.0377 21.6015 32.0159 21.5487 32.0079C21.4599 31.9944 21.3693 31.9989 21.2824 32.0213C21.2306 32.0346 21.1558 32.0641 20.5358 32.4474L16.6603 34.8438ZM26.6667 24C26.6667 25.4728 25.4728 26.6667 24 26.6667C22.5272 26.6667 21.3333 25.4728 21.3333 24C21.3333 22.5272 22.5272 21.3333 24 21.3333C25.4728 21.3333 26.6667 22.5272 26.6667 24Z" fill="#126BF6"/>
</svg>
