<svg width="56" height="56" viewBox="0 0 56 56" fill="none" xmlns="http://www.w3.org/2000/svg">
<path d="M0 28C0 12.536 12.536 0 28 0C43.464 0 56 12.536 56 28C56 43.464 43.464 56 28 56C12.536 56 0 43.464 0 28Z" fill="white"/>
<path fill-rule="evenodd" clip-rule="evenodd" d="M42.2761 36.3907C42.7968 36.9114 42.7968 37.7556 42.2761 38.2763L39.6095 40.943C39.0888 41.4637 38.2446 41.4637 37.7239 40.943C37.2032 40.4223 37.2032 39.5781 37.7239 39.0574L38.1144 38.6668L33.3333 38.6668C32.597 38.6668 32 38.0699 32 37.3335C32 36.5971 32.597 36.0002 33.3333 36.0002L38.1144 36.0002L37.7239 35.6096C37.2032 35.0889 37.2032 34.2447 37.7239 33.724C38.2446 33.2033 39.0888 33.2033 39.6095 33.724L42.2761 36.3907Z" fill="#42B5E6"/>
<path d="M15.0304 22.5902C15.1761 22.6668 15.3649 22.6668 15.7424 22.6668H40.2563C40.6338 22.6668 40.8226 22.6668 40.9683 22.5902C41.0934 22.5244 41.2005 22.4127 41.2608 22.2848C41.3311 22.1359 41.3233 21.9549 41.3077 21.5928C41.2679 20.6689 41.1646 20.0433 40.8967 19.5175C40.5132 18.7649 39.9013 18.153 39.1486 17.7695C38.293 17.3335 37.1729 17.3335 34.9327 17.3335H21.066C18.8258 17.3335 17.7057 17.3335 16.8501 17.7695C16.0974 18.153 15.4855 18.7649 15.102 19.5175C14.8341 20.0433 14.7308 20.6688 14.691 21.5928C14.6754 21.9549 14.6676 22.1359 14.7379 22.2848C14.7982 22.4127 14.9053 22.5244 15.0304 22.5902Z" fill="#42B5E6"/>
<path fill-rule="evenodd" clip-rule="evenodd" d="M14.7387 25.6975C14.666 25.8401 14.666 26.0268 14.666 26.4002V32.2668C14.666 34.507 14.666 35.6271 15.102 36.4828C15.4855 37.2354 16.0974 37.8474 16.8501 38.2309C17.7057 38.6668 18.8258 38.6668 21.066 38.6668H28.266C28.6394 38.6668 28.8261 38.6668 28.9687 38.5942C29.0941 38.5303 29.1961 38.4283 29.26 38.3028C29.3327 38.1602 29.3327 37.9735 29.3327 37.6002V37.3335C29.3327 32.9152 32.9144 29.3335 37.3327 29.3335H40.266C40.6394 29.3335 40.8261 29.3335 40.9687 29.2608C41.0941 29.1969 41.1961 29.0949 41.26 28.9695C41.3327 28.8269 41.3327 28.6402 41.3327 28.2668V26.4002C41.3327 26.0268 41.3327 25.8401 41.26 25.6975C41.1961 25.5721 41.0941 25.4701 40.9687 25.4062C40.8261 25.3335 40.6394 25.3335 40.266 25.3335H15.7327C15.3593 25.3335 15.1726 25.3335 15.03 25.4062C14.9046 25.4701 14.8026 25.5721 14.7387 25.6975ZM19.9993 32.0002C19.9993 31.2638 20.5963 30.6668 21.3327 30.6668H26.666C27.4024 30.6668 27.9993 31.2638 27.9993 32.0002C27.9993 32.7365 27.4024 33.3335 26.666 33.3335H21.3327C20.5963 33.3335 19.9993 32.7365 19.9993 32.0002Z" fill="#42B5E6"/>
</svg>
