<svg width="56" height="56" viewBox="0 0 56 56" fill="none" xmlns="http://www.w3.org/2000/svg">
<path d="M0 28C0 12.536 12.536 0 28 0C43.464 0 56 12.536 56 28C56 43.464 43.464 56 28 56C12.536 56 0 43.464 0 28Z" fill="white"/>
<path d="M37.8971 36.7703L37.3343 37.333C35.596 39.0714 29.1677 39.6665 22.7511 33.2498C16.3344 26.8331 16.9176 20.4164 18.6676 18.6664L19.2405 18.0935C20.1515 17.1824 21.6677 17.3332 22.3824 18.4052L24.7393 21.9403C25.2791 22.7501 25.1723 23.8284 24.4841 24.5166L23.2608 25.7398C22.9484 26.0523 22.8437 26.5135 23.0477 26.9055C23.4195 27.6202 24.1951 28.8605 25.6677 30.3331C27.1403 31.8058 28.3806 32.5813 29.0952 32.9531C29.4872 33.1571 29.9483 33.0524 30.2608 32.74L31.4841 31.5167C32.1723 30.8285 33.2505 30.7217 34.0603 31.2616L37.5836 33.6104C38.6617 34.3291 38.8133 35.854 37.8971 36.7703Z" fill="#45DE82"/>
<path fill-rule="evenodd" clip-rule="evenodd" d="M31.5007 18.6667C31.5007 18.0223 32.023 17.5 32.6673 17.5H37.334C37.9783 17.5 38.5007 18.0223 38.5007 18.6667V23.3333C38.5007 23.9777 37.9783 24.5 37.334 24.5C36.6897 24.5 36.1673 23.9777 36.1673 23.3333V21.4832L32.3256 25.325C31.87 25.7806 31.1313 25.7806 30.6757 25.325C30.2201 24.8693 30.2201 24.1307 30.6757 23.675L34.5174 19.8333H32.6673C32.023 19.8333 31.5007 19.311 31.5007 18.6667Z" fill="#45DE82"/>
</svg>
