<svg width="56" height="56" viewBox="0 0 56 56" fill="none" xmlns="http://www.w3.org/2000/svg">
<path d="M0 28C0 12.536 12.536 0 28 0C43.464 0 56 12.536 56 28C56 43.464 43.464 56 28 56C12.536 56 0 43.464 0 28Z" fill="white"/>
<path fill-rule="evenodd" clip-rule="evenodd" d="M22.4389 17.4741C22.8906 16.5707 23.814 16 24.824 16H31.176C32.186 16 33.1094 16.5707 33.5611 17.4741L34.1574 18.6667H36C38.2091 18.6667 40 20.4575 40 22.6667V36C40 38.2091 38.2091 40 36 40H20C17.7909 40 16 38.2091 16 36V22.6667C16 20.4575 17.7909 18.6667 20 18.6667H21.8426L22.4389 17.4741ZM30.6667 29.3333C30.6667 30.8061 29.4728 32 28 32C26.5272 32 25.3333 30.8061 25.3333 29.3333C25.3333 27.8606 26.5272 26.6667 28 26.6667C29.4728 26.6667 30.6667 27.8606 30.6667 29.3333ZM33.3333 29.3333C33.3333 32.2789 30.9455 34.6667 28 34.6667C25.0545 34.6667 22.6667 32.2789 22.6667 29.3333C22.6667 26.3878 25.0545 24 28 24C30.9455 24 33.3333 26.3878 33.3333 29.3333Z" fill="#FFCC00"/>
</svg>
