<svg width="56" height="56" viewBox="0 0 56 56" fill="none" xmlns="http://www.w3.org/2000/svg">
<path d="M0 28C0 12.536 12.536 0 28 0C43.464 0 56 12.536 56 28C56 43.464 43.464 56 28 56C12.536 56 0 43.464 0 28Z" fill="white"/>
<path fill-rule="evenodd" clip-rule="evenodd" d="M35.6787 28.0005C35.6787 27.5079 35.6315 27.022 35.5403 26.5484C37.2282 25.6483 38.7417 24.4414 40 22.983V38.667C40 39.0172 39.931 39.3639 39.797 39.6875C39.663 40.011 39.4666 40.305 39.219 40.5526C38.9713 40.8002 38.6774 40.9967 38.3538 41.1307C38.0303 41.2647 37.6835 41.3337 37.3333 41.3337H18.6667C18.3165 41.3337 17.9697 41.2647 17.6462 41.1307C17.3226 40.9967 17.0287 40.8002 16.781 40.5526C16.5334 40.305 16.337 40.011 16.203 39.6875C16.069 39.3639 16 39.0172 16 38.667V22.9843C17.2597 24.4431 18.7738 25.6491 20.4606 26.5484C20.3695 27.022 20.3223 27.5079 20.3223 28.0005C20.3223 30.7436 21.7857 33.2784 24.1614 34.65C26.537 36.0216 29.4639 36.0216 31.8396 34.65C34.2152 33.2784 35.6787 30.7436 35.6787 28.0005ZM16 19.499C17.166 21.6102 18.9287 23.3921 21.1061 24.6206C21.7665 23.2739 22.8181 22.1265 24.1614 21.3509C26.537 19.9794 29.4639 19.9794 31.8396 21.3509C33.1827 22.1264 34.2342 23.2737 34.8946 24.6202C37.0735 23.391 38.835 21.6089 40 19.5003V17.3337C40 16.9835 39.931 16.6367 39.797 16.3132C39.663 15.9896 39.4666 15.6957 39.219 15.448C38.9713 15.2004 38.6774 15.004 38.3538 14.87C38.0303 14.736 37.6835 14.667 37.3333 14.667H18.6667C18.3165 14.667 17.9697 14.736 17.6462 14.87C17.3226 15.004 17.0287 15.2004 16.781 15.448C16.5334 15.6957 16.337 15.9896 16.203 16.3132C16.069 16.6367 16 16.9835 16 17.3337V19.499ZM31.0896 22.65C29.178 21.5464 26.8229 21.5464 24.9114 22.65C22.9998 23.7536 21.8223 25.7932 21.8223 28.0005C21.8223 30.2077 22.9998 32.2473 24.9114 33.351C26.8229 34.4546 29.178 34.4546 31.0896 33.351C33.0011 32.2473 34.1787 30.2077 34.1787 28.0005C34.1787 25.7932 33.0011 23.7536 31.0896 22.65ZM25.3226 27.0223C25.1401 27.0223 24.9922 27.1676 24.9922 27.347C24.9922 27.5263 25.1401 27.6717 25.3226 27.6717H26.6508C26.4527 28.3022 26.9243 28.9641 27.5958 28.9641H29.3865C29.0759 29.2953 28.6464 29.6265 28.1045 29.9512C27.7588 29.8416 27.3989 29.7413 27.025 29.6462C26.8997 29.6144 26.7679 29.6644 26.6959 29.77C26.5774 29.9436 26.67 30.1802 26.8748 30.2363C27.6613 30.4517 28.4293 30.7249 29.1848 31.0557C29.3426 31.1248 29.5289 31.0723 29.6225 30.9295C29.7378 30.7537 29.6657 30.5176 29.4687 30.4384C29.2704 30.3587 29.0678 30.2824 28.8578 30.211C29.4182 29.8142 29.8467 29.4229 30.1383 29.0369C30.1925 28.9652 30.2191 28.8773 30.2191 28.7879C30.2191 28.5409 30.0153 28.3406 29.7639 28.3406H27.9074C27.5572 28.3406 27.3084 28.0008 27.4107 27.6717H30.6618C30.8443 27.6717 30.9922 27.5263 30.9922 27.347C30.9922 27.1676 30.8443 27.0223 30.6618 27.0223H27.5891L27.5891 27.0222C27.6354 26.8274 27.6816 26.6326 27.7279 26.4248H30.2752C30.4522 26.4248 30.5957 26.2838 30.5957 26.1098C30.5957 25.9358 30.4522 25.7948 30.2752 25.7948H27.8666C27.8833 25.702 27.9012 25.6091 27.9192 25.5152L27.9226 25.4976C27.9617 25.2942 27.8124 25.1045 27.6025 25.0872C27.4212 25.0722 27.2571 25.1923 27.2214 25.3677C27.2173 25.3878 27.2132 25.4079 27.2091 25.428C27.1844 25.5497 27.1596 25.6715 27.1332 25.7948H25.7686C25.5916 25.7948 25.4481 25.9358 25.4481 26.1098C25.4481 26.2838 25.5916 26.4248 25.7686 26.4248H26.9878C26.9585 26.5328 26.9312 26.6428 26.9037 26.7537C26.8816 26.8428 26.8594 26.9325 26.8358 27.0223H25.3226Z" fill="#F05956"/>
</svg>
