<svg width="56" height="56" viewBox="0 0 56 56" fill="none" xmlns="http://www.w3.org/2000/svg">
<path d="M0 28C0 12.536 12.536 0 28 0C43.464 0 56 12.536 56 28C56 43.464 43.464 56 28 56C12.536 56 0 43.464 0 28Z" fill="white"/>
<path fill-rule="evenodd" clip-rule="evenodd" d="M15 28C15 35.1797 20.8203 41 28 41C35.1797 41 41 35.1797 41 28C41 20.8203 35.1797 15 28 15C20.8203 15 15 20.8203 15 28ZM34.4998 31.7143C35.4847 31.7143 36.419 31.9337 37.2556 32.326C36.4944 33.9521 35.317 35.3448 33.8606 36.3668C33.565 34.8254 32.9065 33.413 31.9773 32.2221C32.7528 31.8952 33.6052 31.7143 34.4998 31.7143ZM24.2857 30.7857C28.1577 30.7857 31.3378 33.748 31.6831 37.5301C30.5405 37.9719 29.2986 38.2143 28.0001 38.2143C24.15 38.2143 20.7974 36.0841 19.0566 32.9381C20.3985 31.6081 22.2456 30.7857 24.2857 30.7857ZM28.0001 25.2143C28.0001 27.2656 26.3371 28.9286 24.2858 28.9286C22.2344 28.9286 20.5715 27.2656 20.5715 25.2143C20.5715 23.1629 22.2344 21.5 24.2858 21.5C26.3371 21.5 28.0001 23.1629 28.0001 25.2143ZM34.5 29.8571C36.0386 29.8571 37.2857 28.6099 37.2857 27.0714C37.2857 25.5329 36.0386 24.2857 34.5 24.2857C32.9615 24.2857 31.7143 25.5329 31.7143 27.0714C31.7143 28.6099 32.9615 29.8571 34.5 29.8571Z" fill="#126BF6"/>
</svg>
