<svg width="56" height="56" viewBox="0 0 56 56" fill="none" xmlns="http://www.w3.org/2000/svg">
<path d="M0 28C0 12.536 12.536 0 28 0C43.464 0 56 12.536 56 28C56 43.464 43.464 56 28 56C12.536 56 0 43.464 0 28Z" fill="white"/>
<path fill-rule="evenodd" clip-rule="evenodd" d="M17 18C15.3431 18 14 19.3431 14 21V35C14 36.6568 15.3431 38 17 38H39C40.6568 38 42 36.6568 42 35V21C42 19.3431 40.6568 18 39 18H17ZM22.5486 24C20.3395 24 18.5486 25.7909 18.5486 28C18.5486 30.2091 20.3395 32 22.5486 32C24.7578 32 26.5486 30.2091 26.5486 28C26.5486 25.7909 24.7578 24 22.5486 24ZM30.2014 25C30.2014 24.3096 30.761 23.75 31.4514 23.75H36.4514C37.1418 23.75 37.7014 24.3096 37.7014 25C37.7014 25.6904 37.1418 26.25 36.4514 26.25H31.4514C30.761 26.25 30.2014 25.6904 30.2014 25ZM31.4514 29.75C30.761 29.75 30.2014 30.3096 30.2014 31C30.2014 31.6904 30.761 32.25 31.4514 32.25H36.4514C37.1418 32.25 37.7014 31.6904 37.7014 31C37.7014 30.3096 37.1418 29.75 36.4514 29.75H31.4514Z" fill="#FFCC00"/>
</svg>
