<svg width="16" height="16" viewBox="0 0 16 16" fill="none" xmlns="http://www.w3.org/2000/svg">
<g id="System / Checks">
<path id="Style" fill-rule="evenodd" clip-rule="evenodd" d="M11.8046 4.19526C12.0449 4.43558 12.0634 4.81374 11.86 5.07527L11.8046 5.13807L8.47124 8.4714C8.21089 8.73175 7.78878 8.73175 7.52843 8.4714C7.28811 8.23108 7.26962 7.85293 7.47297 7.5914L7.52843 7.5286L10.8618 4.19526C11.1221 3.93491 11.5442 3.93491 11.8046 4.19526ZM1.74177 7.47314L1.80458 7.5286L5.13791 10.8619C5.39826 11.1223 5.39826 11.5444 5.13791 11.8047C4.89759 12.0451 4.51943 12.0635 4.2579 11.8602L4.1951 11.8047L0.861766 8.4714C0.601417 8.21106 0.601417 7.78895 0.861766 7.5286C1.08206 7.3083 1.41817 7.27441 1.67411 7.42692L1.74177 7.47314ZM15.1379 4.19526C14.8776 3.93491 14.4554 3.93491 14.1951 4.19526L7.99984 10.39L5.13791 7.5286L5.0751 7.47314C4.81358 7.26979 4.43542 7.28827 4.1951 7.5286C3.93475 7.78895 3.93475 8.21105 4.1951 8.4714L7.52843 11.8047L7.59124 11.8602C7.85277 12.0635 8.23092 12.0451 8.47124 11.8047L15.1379 5.13807L15.1934 5.07527C15.3967 4.81374 15.3782 4.43558 15.1379 4.19526Z" fill="#126BF6"/>
</g>
</svg>
