<svg width="25" height="24" viewBox="0 0 25 24" fill="none" xmlns="http://www.w3.org/2000/svg">
<path d="M19.25 10.5C19.25 10.6989 19.171 10.8897 19.0303 11.0303C18.8897 11.171 18.6989 11.25 18.5 11.25H14.75C14.5511 11.25 14.3603 11.171 14.2197 11.0303C14.079 10.8897 14 10.6989 14 10.5C14 10.3011 14.079 10.1103 14.2197 9.96967C14.3603 9.82902 14.5511 9.75 14.75 9.75H18.5C18.6989 9.75 18.8897 9.82902 19.0303 9.96967C19.171 10.1103 19.25 10.3011 19.25 10.5ZM18.5 12.75H14.75C14.5511 12.75 14.3603 12.829 14.2197 12.9697C14.079 13.1103 14 13.3011 14 13.5C14 13.6989 14.079 13.8897 14.2197 14.0303C14.3603 14.171 14.5511 14.25 14.75 14.25H18.5C18.6989 14.25 18.8897 14.171 19.0303 14.0303C19.171 13.8897 19.25 13.6989 19.25 13.5C19.25 13.3011 19.171 13.1103 19.0303 12.9697C18.8897 12.829 18.6989 12.75 18.5 12.75ZM22.25 5.25V18.75C22.25 19.1478 22.092 19.5294 21.8107 19.8107C21.5294 20.092 21.1478 20.25 20.75 20.25H4.25C3.85218 20.25 3.47064 20.092 3.18934 19.8107C2.90804 19.5294 2.75 19.1478 2.75 18.75V5.25C2.75 4.85218 2.90804 4.47064 3.18934 4.18934C3.47064 3.90804 3.85218 3.75 4.25 3.75H20.75C21.1478 3.75 21.5294 3.90804 21.8107 4.18934C22.092 4.47064 22.25 4.85218 22.25 5.25ZM20.75 18.75V5.25H4.25V18.75H20.75ZM13.2256 15.5625C13.2754 15.7552 13.2465 15.9598 13.1454 16.1312C13.0443 16.3026 12.8793 16.4268 12.6866 16.4766C12.4939 16.5263 12.2893 16.4974 12.1179 16.3963C11.9465 16.2952 11.8222 16.1302 11.7725 15.9375C11.5259 14.9756 10.5481 14.25 9.49906 14.25C8.45 14.25 7.47312 14.9756 7.22563 15.9375C7.1759 16.1302 7.05166 16.2952 6.88024 16.3963C6.70882 16.4974 6.50426 16.5263 6.31156 16.4766C6.11887 16.4268 5.95382 16.3026 5.85272 16.1312C5.75163 15.9598 5.72277 15.7552 5.7725 15.5625C6.01588 14.6566 6.59118 13.8755 7.38406 13.3744C6.96272 12.9555 6.67522 12.421 6.55802 11.8386C6.44082 11.2562 6.49918 10.652 6.72572 10.1028C6.95226 9.55361 7.33676 9.08402 7.8305 8.75358C8.32423 8.42315 8.90496 8.24675 9.49906 8.24675C10.0932 8.24675 10.6739 8.42315 11.1676 8.75358C11.6614 9.08402 12.0459 9.55361 12.2724 10.1028C12.4989 10.652 12.5573 11.2562 12.4401 11.8386C12.3229 12.421 12.0354 12.9555 11.6141 13.3744C12.4078 13.8748 12.9836 14.6562 13.2266 15.5625H13.2256ZM9.5 12.75C9.79667 12.75 10.0867 12.662 10.3334 12.4972C10.58 12.3324 10.7723 12.0981 10.8858 11.824C10.9994 11.5499 11.0291 11.2483 10.9712 10.9574C10.9133 10.6664 10.7704 10.3991 10.5607 10.1893C10.3509 9.97956 10.0836 9.8367 9.79264 9.77882C9.50166 9.72094 9.20006 9.75065 8.92597 9.86418C8.65189 9.97771 8.41762 10.17 8.2528 10.4166C8.08797 10.6633 8 10.9533 8 11.25C8 11.6478 8.15804 12.0294 8.43934 12.3107C8.72064 12.592 9.10218 12.75 9.5 12.75Z" fill="#A3A3A3"/>
</svg>
