<svg width="25" height="24" viewBox="0 0 25 24" fill="none" xmlns="http://www.w3.org/2000/svg">
<g id="vuesax/linear/tag-user">
<g id="tag-user">
<path id="Vector" d="M18.5 18.86H17.74C16.94 18.86 16.18 19.17 15.62 19.73L13.91 21.42C13.13 22.19 11.86 22.19 11.08 21.42L9.37 19.73C8.81 19.17 8.04 18.86 7.25 18.86H6.5C4.84 18.86 3.5 17.53 3.5 15.89V4.97C3.5 3.33 4.84 2 6.5 2H18.5C20.16 2 21.5 3.33 21.5 4.97V15.88C21.5 17.52 20.16 18.86 18.5 18.86Z" stroke="#868B90" stroke-width="1.5" stroke-miterlimit="10" stroke-linecap="round" stroke-linejoin="round"/>
<g id="Group">
<path id="Vector_2" d="M12.5701 8.95005C12.5301 8.95005 12.47 8.95005 12.42 8.95005C11.37 8.91005 10.54 8.06005 10.54 7.00005C10.54 5.92005 11.4101 5.05005 12.4901 5.05005C13.5701 5.05005 14.4401 5.93005 14.4401 7.00005C14.4501 8.06005 13.6201 8.92005 12.5701 8.95005Z" stroke="#868B90" stroke-width="1.5" stroke-linecap="round" stroke-linejoin="round"/>
<path id="Vector_3" d="M9.74994 11.96C8.41994 12.85 8.41994 14.3 9.74994 15.19C11.2599 16.2 13.7399 16.2 15.2499 15.19C16.5799 14.3 16.5799 12.85 15.2499 11.96C13.7399 10.96 11.2699 10.96 9.74994 11.96Z" stroke="#868B90" stroke-width="1.5" stroke-linecap="round" stroke-linejoin="round"/>
</g>
</g>
</g>
</svg>
