<svg width="20" height="21" viewBox="0 0 20 21" fill="none" xmlns="http://www.w3.org/2000/svg">
<path d="M4.9758 5.47559C3.2638 6.76338 2.32088 8.4869 1.89181 9.45066C1.59309 10.1216 1.59352 10.8798 1.89208 11.5503C2.61652 13.1772 4.90996 17.1668 10.0006 17.1668C12.1185 17.1668 13.772 16.4674 15.0251 15.5249L13.8319 14.3317C12.8628 15.0091 11.6124 15.5002 10.0006 15.5002C5.95456 15.5002 4.07544 12.3563 3.41463 10.8723C3.30801 10.6329 3.30801 10.3675 3.4144 10.1285C3.79848 9.26583 4.62941 7.77687 6.09076 6.72426C6.1168 6.7055 6.14144 6.68552 6.16465 6.66444L4.9758 5.47559Z" fill="#D4D4D4"/>
<path d="M7.64332 8.14307C7.04106 8.74542 6.66699 9.57955 6.66699 10.5001C6.66699 12.341 8.15938 13.8334 10.0003 13.8334C10.9209 13.8334 11.755 13.4594 12.3574 12.8571L11.1789 11.6786C10.8764 11.9812 10.4605 12.1668 10.0003 12.1668C9.07985 12.1668 8.33366 11.4206 8.33366 10.5001C8.33366 10.0399 8.51924 9.62403 8.82182 9.32156L7.64332 8.14307Z" fill="#D4D4D4"/>
<path d="M9.99991 3.8335C15.0907 3.8335 17.3839 7.82335 18.1082 9.45021C18.4068 10.1209 18.4068 10.8795 18.1082 11.5501C17.9785 11.8415 17.8045 12.1962 17.58 12.5842C17.3494 12.9826 16.8396 13.1186 16.4413 12.8881C16.0429 12.6576 15.9069 12.1478 16.1374 11.7494C16.3287 11.4189 16.4765 11.1174 16.5856 10.8722C16.6921 10.6331 16.6921 10.3672 16.5856 10.1281C15.9249 8.64411 14.046 5.50016 9.99991 5.50016L9.16636 5.50017C8.70612 5.50017 8.33301 5.12708 8.33301 4.66684C8.333 4.20661 8.7061 3.83351 9.16634 3.8335L9.99991 3.8335Z" fill="#D4D4D4"/>
<path fill-rule="evenodd" clip-rule="evenodd" d="M1.91107 2.41058C2.23651 2.08514 2.76414 2.08514 3.08958 2.41058L18.0896 17.4106C18.415 17.736 18.415 18.2637 18.0896 18.5891C17.7641 18.9145 17.2365 18.9145 16.9111 18.5891L1.91107 3.58909C1.58563 3.26366 1.58563 2.73602 1.91107 2.41058Z" fill="#D4D4D4"/>
</svg>
