<svg width="25" height="24" viewBox="0 0 25 24" fill="none" xmlns="http://www.w3.org/2000/svg">
<g id="vuesax/bold/note-2">
<path id="Vector" d="M13.178 19.957C13.4528 20.0209 13.4779 20.3807 13.2103 20.4699L11.6303 20.9899C7.66034 22.2699 5.57034 21.1999 4.28034 17.2299L3.00034 13.2799C1.72034 9.30992 2.78034 7.20992 6.75034 5.92992L7.27434 5.75639C7.6772 5.62297 8.06927 6.02703 7.95487 6.43571C7.89817 6.63828 7.84362 6.84968 7.79034 7.06992L6.81034 11.2599C5.71034 15.9699 7.32034 18.5699 12.0303 19.6899L13.178 19.957Z" fill="#20242A"/>
<path id="Vector_2" d="M17.6702 3.2105L16.0002 2.8205C12.6602 2.0305 10.6702 2.6805 9.50018 5.1005C9.20018 5.7105 8.96018 6.4505 8.76018 7.3005L7.78018 11.4905C6.80018 15.6705 8.09018 17.7305 12.2602 18.7205L13.9402 19.1205C14.5202 19.2605 15.0602 19.3505 15.5602 19.3905C18.6802 19.6905 20.3402 18.2305 21.1802 14.6205L22.1602 10.4405C23.1402 6.2605 21.8602 4.1905 17.6702 3.2105ZM15.7902 13.3305C15.7002 13.6705 15.4002 13.8905 15.0602 13.8905C15.0002 13.8905 14.9402 13.8805 14.8702 13.8705L11.9602 13.1305C11.5602 13.0305 11.3202 12.6205 11.4202 12.2205C11.5202 11.8205 11.9302 11.5805 12.3302 11.6805L15.2402 12.4205C15.6502 12.5205 15.8902 12.9305 15.7902 13.3305ZM18.7202 9.9505C18.6302 10.2905 18.3302 10.5105 17.9902 10.5105C17.9302 10.5105 17.8702 10.5005 17.8002 10.4905L12.9502 9.2605C12.5502 9.1605 12.3102 8.7505 12.4102 8.3505C12.5102 7.9505 12.9202 7.7105 13.3202 7.8105L18.1702 9.0405C18.5802 9.1305 18.8202 9.5405 18.7202 9.9505Z" fill="#20242A"/>
</g>
</svg>
