<svg width="25" height="24" viewBox="0 0 25 24" fill="none" xmlns="http://www.w3.org/2000/svg">
<path d="M12.5 2.25C10.5716 2.25 8.68657 2.82183 7.08319 3.89317C5.47982 4.96451 4.23013 6.48726 3.49218 8.26884C2.75422 10.0504 2.56114 12.0108 2.93735 13.9021C3.31355 15.7934 4.24215 17.5307 5.60571 18.8943C6.96928 20.2579 8.70656 21.1865 10.5979 21.5627C12.4892 21.9389 14.4496 21.7458 16.2312 21.0078C18.0127 20.2699 19.5355 19.0202 20.6068 17.4168C21.6782 15.8134 22.25 13.9284 22.25 12C22.2473 9.41498 21.2192 6.93661 19.3913 5.10872C17.5634 3.28084 15.085 2.25273 12.5 2.25ZM12.5 20.25C10.8683 20.25 9.27326 19.7661 7.91655 18.8596C6.55984 17.9531 5.50242 16.6646 4.878 15.1571C4.25358 13.6496 4.0902 11.9908 4.40853 10.3905C4.72685 8.79016 5.51259 7.32015 6.66637 6.16637C7.82016 5.01259 9.29017 4.22685 10.8905 3.90852C12.4909 3.59019 14.1497 3.75357 15.6571 4.37799C17.1646 5.00242 18.4531 6.05984 19.3596 7.41655C20.2661 8.77325 20.75 10.3683 20.75 12C20.7475 14.1873 19.8775 16.2843 18.3309 17.8309C16.7843 19.3775 14.6873 20.2475 12.5 20.25ZM16.6644 6.82875L10.6644 9.82875C10.5193 9.90162 10.4016 10.0193 10.3288 10.1644L7.32875 16.1644C7.27151 16.2788 7.24448 16.4059 7.25022 16.5337C7.25596 16.6614 7.29429 16.7856 7.36156 16.8944C7.42882 17.0032 7.5228 17.093 7.63454 17.1552C7.74629 17.2175 7.8721 17.2501 8 17.25C8.11644 17.2498 8.23127 17.2229 8.33563 17.1713L14.3356 14.1713C14.4807 14.0984 14.5984 13.9807 14.6713 13.8356L17.6713 7.83563C17.742 7.69475 17.7666 7.53515 17.7415 7.3795C17.7164 7.22385 17.6429 7.08007 17.5314 6.96859C17.4199 6.85711 17.2762 6.7836 17.1205 6.75849C16.9649 6.73339 16.8053 6.75797 16.6644 6.82875ZM13.4375 12.9375L9.67719 14.8228L11.5625 11.0625L15.3266 9.18094L13.4375 12.9375Z" fill="#A3A3A3"/>
</svg>
