<svg width="25" height="24" viewBox="0 0 25 24" fill="none" xmlns="http://www.w3.org/2000/svg">
<g id="vuesax/linear/note-2">
<g id="note-2">
<path id="Vector" d="M22.1602 10.44L21.1802 14.62C20.3402 18.23 18.6802 19.69 15.5602 19.39C15.0602 19.35 14.5202 19.26 13.9402 19.12L12.2602 18.72C8.09018 17.73 6.80018 15.67 7.78018 11.49L8.76018 7.30001C8.96018 6.45001 9.20018 5.71001 9.50018 5.10001C10.6702 2.68001 12.6602 2.03001 16.0002 2.82001L17.6702 3.21001C21.8602 4.19001 23.1402 6.26001 22.1602 10.44Z" stroke="#868B90" stroke-width="1.5" stroke-linecap="round" stroke-linejoin="round"/>
<path id="Vector_2" d="M15.5599 19.3901C14.9399 19.8101 14.1599 20.1601 13.2099 20.4701L11.6299 20.9901C7.65985 22.2701 5.56985 21.2001 4.27985 17.2301L2.99985 13.2801C1.71985 9.3101 2.77985 7.2101 6.74985 5.9301L8.32985 5.4101C8.73985 5.2801 9.12985 5.1701 9.49985 5.1001C9.19985 5.7101 8.95985 6.4501 8.75985 7.3001L7.77985 11.4901C6.79985 15.6701 8.08985 17.7301 12.2599 18.7201L13.9399 19.1201C14.5199 19.2601 15.0599 19.3501 15.5599 19.3901Z" stroke="#868B90" stroke-width="1.5" stroke-linecap="round" stroke-linejoin="round"/>
<path id="Vector_3" d="M13.1401 8.53003L17.9901 9.76003" stroke="#868B90" stroke-width="1.5" stroke-linecap="round" stroke-linejoin="round"/>
<path id="Vector_4" d="M12.1602 12.3999L15.0602 13.1399" stroke="#868B90" stroke-width="1.5" stroke-linecap="round" stroke-linejoin="round"/>
</g>
</g>
</svg>
