<?xml version="1.0" standalone="no"?><!DOCTYPE svg PUBLIC "-//W3C//DTD SVG 1.1//EN" "http://www.w3.org/Graphics/SVG/1.1/DTD/svg11.dtd"><svg t="1742916519045" class="icon" viewBox="0 0 1024 1024" version="1.1" xmlns="http://www.w3.org/2000/svg" p-id="7080" xmlns:xlink="http://www.w3.org/1999/xlink" width="256" height="256"><path d="M512 1024a512 512 0 1 1 512-512 512 512 0 0 1-512 512z m279.273-791.49a40.867 40.867 0 0 0-50.456-5.958l-310.303 190.65a42.232 42.232 0 0 0-13.498 13.499L226.397 741.004a41.084 41.084 0 0 0 56.692 56.475l310.303-190.526a42.201 42.201 0 0 0 13.499-13.498L797.51 283.152a40.898 40.898 0 0 0-6.237-50.642zM535.397 552.34A46.545 46.545 0 1 1 558.732 512a46.545 46.545 0 0 1-23.335 40.34z" p-id="7081"></path></svg>