<svg width="25" height="24" viewBox="0 0 25 24" fill="none" xmlns="http://www.w3.org/2000/svg">
<g id="Communication / Chat Dots">
<path id="Subtract" fill-rule="evenodd" clip-rule="evenodd" d="M3.5 9.4V17.2747C3.5 19.1327 3.5 20.0617 3.86464 20.484C4.18091 20.8503 4.65448 21.0415 5.13642 20.9975C5.69206 20.9468 6.3371 20.2782 7.62716 18.9411L8.55628 17.9781C8.90431 17.6174 9.07832 17.4371 9.2832 17.3079C9.46482 17.1935 9.66368 17.109 9.87215 17.0578C10.1073 17 10.3579 17 10.8592 17H15.1C17.3402 17 18.4603 17 19.316 16.564C20.0686 16.1805 20.6805 15.5686 21.064 14.816C21.5 13.9603 21.5 12.8402 21.5 10.6V9.4C21.5 7.15979 21.5 6.03969 21.064 5.18404C20.6805 4.43139 20.0686 3.81947 19.316 3.43597C18.4603 3 17.3402 3 15.1 3H9.9C7.65979 3 6.53969 3 5.68404 3.43597C4.93139 3.81947 4.31947 4.43139 3.93597 5.18404C3.5 6.03969 3.5 7.15979 3.5 9.4ZM8.5 11C9.05228 11 9.5 10.5523 9.5 10C9.5 9.44772 9.05228 9 8.5 9C7.94772 9 7.5 9.44772 7.5 10C7.5 10.5523 7.94772 11 8.5 11ZM13.5 10C13.5 10.5523 13.0523 11 12.5 11C11.9477 11 11.5 10.5523 11.5 10C11.5 9.44772 11.9477 9 12.5 9C13.0523 9 13.5 9.44772 13.5 10ZM16.5 11C17.0523 11 17.5 10.5523 17.5 10C17.5 9.44772 17.0523 9 16.5 9C15.9477 9 15.5 9.44772 15.5 10C15.5 10.5523 15.9477 11 16.5 11Z" fill="#126BF6"/>
</g>
</svg>
