<svg width="21" height="22" viewBox="0 0 21 22" fill="none" xmlns="http://www.w3.org/2000/svg">
<g id="Communication / Phone Outgoing">
<path id="Shape" d="M17.9223 17.5776L17.5002 17.9997C16.1965 19.3034 11.3753 19.7497 6.56281 14.9372C1.75031 10.1247 2.18773 5.31215 3.50023 3.99965L3.9299 3.56998C4.61316 2.88671 5.75031 2.99976 6.28632 3.80375L8.05395 6.45513C8.45885 7.06247 8.37877 7.87118 7.86262 8.38731L6.94515 9.30475C6.71078 9.53911 6.63228 9.88499 6.78526 10.179C7.06413 10.715 7.64584 11.6453 8.75031 12.7497C9.85477 13.8542 10.7849 14.4359 11.3209 14.7147C11.6149 14.8677 11.9608 14.7892 12.1951 14.5548L13.1126 13.6374C13.6287 13.1213 14.4374 13.0412 15.0447 13.446L17.6872 15.2077C18.4958 15.7467 18.6095 16.8904 17.9223 17.5776Z" fill="#45DE82"/>
<path id="Shape_2" fill-rule="evenodd" clip-rule="evenodd" d="M13.125 4C13.125 3.51675 13.5168 3.125 14 3.125H17.5C17.9832 3.125 18.375 3.51675 18.375 4V7.5C18.375 7.98325 17.9832 8.375 17.5 8.375C17.0168 8.375 16.625 7.98325 16.625 7.5V6.11244L13.7437 8.99372C13.402 9.33543 12.848 9.33543 12.5063 8.99372C12.1646 8.65201 12.1646 8.09799 12.5063 7.75628L15.3876 4.875H14C13.5168 4.875 13.125 4.48325 13.125 4Z" fill="#45DE82"/>
</g>
</svg>
