<svg width="19" height="18" viewBox="0 0 19 18" fill="none" xmlns="http://www.w3.org/2000/svg">
<g id="webcam-video-square--work-video-meeting-camera-company-conference-office">
<path id="Subtract" fill-rule="evenodd" clip-rule="evenodd" d="M0.5 2.07697C0.5 0.929888 1.42989 0 2.57697 0H16.4234C17.5705 0 18.5004 0.929888 18.5004 2.07697V15.9234C18.5004 17.0705 17.5705 18.0004 16.4234 18.0004H2.57697C1.42989 18.0004 0.5 17.0705 0.5 15.9234V2.07697ZM4.62754 5.43225C4.83229 5.2275 5.10998 5.11248 5.39952 5.11248H10.9914C11.2809 5.11248 11.5586 5.2275 11.7633 5.43225C11.9681 5.63698 12.0831 5.91467 12.0831 6.20422V6.97689L13.6969 6.26157L13.6982 6.26099C14.209 6.03122 14.6926 6.45844 14.6926 6.92743V11.0728C14.6926 11.5486 14.1947 11.9314 13.7148 11.7462L13.699 11.7401L12.0831 11.0234V11.7961C12.0831 12.0856 11.9681 12.3633 11.7633 12.568C11.5586 12.7728 11.2809 12.8878 10.9914 12.8878H5.39952C5.10998 12.8878 4.83229 12.7728 4.62754 12.568C4.4228 12.3633 4.30778 12.0856 4.30778 11.7961V6.20422C4.30778 5.91467 4.4228 5.63698 4.62754 5.43225Z" fill="#42B5E6"/>
</g>
</svg>
