<svg width="25" height="24" viewBox="0 0 25 24" fill="none" xmlns="http://www.w3.org/2000/svg">
<path d="M17.75 20C17.75 18.3431 15.5114 17 12.75 17C9.98858 17 7.75 18.3431 7.75 20M21.75 17.0004C21.75 15.7702 20.5159 14.7129 18.75 14.25M3.75 17.0004C3.75 15.7702 4.9841 14.7129 6.75 14.25M18.75 10.2361C19.3637 9.68679 19.75 8.8885 19.75 8C19.75 6.34315 18.4069 5 16.75 5C15.9816 5 15.2808 5.28885 14.75 5.76389M6.75 10.2361C6.13625 9.68679 5.75 8.8885 5.75 8C5.75 6.34315 7.09315 5 8.75 5C9.51835 5 10.2192 5.28885 10.75 5.76389M12.75 14C11.0931 14 9.75 12.6569 9.75 11C9.75 9.34315 11.0931 8 12.75 8C14.4069 8 15.75 9.34315 15.75 11C15.75 12.6569 14.4069 14 12.75 14Z" stroke="#0A0A0A" stroke-width="2" stroke-linecap="round" stroke-linejoin="round"/>
</svg>
