<svg width="206" height="205" viewBox="0 0 206 205" fill="none" xmlns="http://www.w3.org/2000/svg">
<g filter="url(#filter0_d_7004_8573)">
<path d="M23 52.9231C23 32.531 39.531 16 59.9231 16H146.077C166.469 16 183 32.531 183 52.9231V139.077C183 159.469 166.469 176 146.077 176H59.9231C39.531 176 23 159.469 23 139.077V52.9231Z" fill="white"/>
<circle cx="103.099" cy="96.3833" r="42.5" fill="url(#paint0_linear_7004_8573)"/>
<path fill-rule="evenodd" clip-rule="evenodd" d="M59.8522 98.1661C59.8484 97.8793 59.8465 97.5853 59.8465 97.2839C59.8465 93.2908 60.3599 89.4206 61.3228 85.7388C60.3627 86.3638 59.4276 86.9956 58.5184 87.6331C43.9487 97.8502 36.0429 109.568 38.9985 119.121C43.8978 134.956 76.7865 138.847 112.457 127.811C148.128 116.774 173.073 94.9906 168.174 79.1552C165.37 70.0913 153.396 64.9409 136.979 64.2629C135.425 64.1987 133.831 64.1746 132.201 64.191C135.217 66.9682 137.852 70.1723 140.014 73.7107C145.841 74.2272 150.474 75.4007 153.792 76.9413C157.725 78.7671 158.974 80.6651 159.351 81.885C159.686 82.9694 159.754 84.8108 158.281 87.7763C156.778 90.8004 153.915 94.4307 149.455 98.3259C140.553 106.099 126.625 113.759 109.728 118.987C92.8299 124.215 77.0099 125.759 65.2736 124.371C59.3926 123.675 54.9799 122.296 52.0321 120.649C49.1413 119.033 48.1572 117.476 47.8217 116.391C47.4259 115.112 47.403 112.642 49.984 108.576C52.0065 105.389 55.2907 101.822 59.8522 98.1661Z" fill="url(#paint1_linear_7004_8573)"/>
<path fill-rule="evenodd" clip-rule="evenodd" d="M101.836 140.016C97.3448 139.911 93.0202 139.13 88.9601 137.773C89.8095 139.113 90.6721 140.408 91.5457 141.653C101.763 156.223 113.481 164.129 123.034 161.173C138.869 156.274 142.759 123.385 131.723 87.7145C120.687 52.0436 98.9032 27.0984 83.0678 31.9977C74.0039 34.802 68.8535 46.776 68.1755 63.1929C68.0929 65.1932 68.0767 67.2595 68.1279 69.3832C70.8148 65.9006 74.0136 62.833 77.6115 60.2932C78.1218 54.4023 79.3014 49.7237 80.8539 46.3799C82.6797 42.4472 84.5777 41.1983 85.7976 40.8209C86.882 40.4854 88.7234 40.4178 91.6889 41.8913C94.713 43.394 98.3433 46.2567 102.239 50.7173C110.012 59.619 117.672 73.5467 122.9 90.4443C128.128 107.342 129.672 123.162 128.283 134.898C127.588 140.779 126.208 145.192 124.561 148.14C122.946 151.031 121.388 152.015 120.304 152.35C119.025 152.746 116.554 152.769 112.488 150.188C109.232 148.121 105.577 144.736 101.836 140.016Z" fill="url(#paint2_linear_7004_8573)"/>
</g>
<defs>
<filter id="filter0_d_7004_8573" x="0.900002" y="0.400001" width="204.2" height="204.2" filterUnits="userSpaceOnUse" color-interpolation-filters="sRGB">
<feFlood flood-opacity="0" result="BackgroundImageFix"/>
<feColorMatrix in="SourceAlpha" type="matrix" values="0 0 0 0 0 0 0 0 0 0 0 0 0 0 0 0 0 0 127 0" result="hardAlpha"/>
<feOffset dy="6.5"/>
<feGaussianBlur stdDeviation="11.05"/>
<feComposite in2="hardAlpha" operator="out"/>
<feColorMatrix type="matrix" values="0 0 0 0 0.8375 0 0 0 0 0.905208 0 0 0 0 1 0 0 0 0.24 0"/>
<feBlend mode="normal" in2="BackgroundImageFix" result="effect1_dropShadow_7004_8573"/>
<feBlend mode="normal" in="SourceGraphic" in2="effect1_dropShadow_7004_8573" result="shape"/>
</filter>
<linearGradient id="paint0_linear_7004_8573" x1="103.099" y1="53.8833" x2="103.099" y2="138.883" gradientUnits="userSpaceOnUse">
<stop stop-color="#3189FF"/>
<stop offset="1" stop-color="#86F29D"/>
</linearGradient>
<linearGradient id="paint1_linear_7004_8573" x1="31.4574" y1="121.91" x2="157.295" y2="76.8853" gradientUnits="userSpaceOnUse">
<stop stop-color="#2F8DF5"/>
<stop offset="1" stop-color="#86F29D"/>
</linearGradient>
<linearGradient id="paint2_linear_7004_8573" x1="125.822" y1="168.714" x2="80.7979" y2="42.8767" gradientUnits="userSpaceOnUse">
<stop stop-color="#2F8DF5"/>
<stop offset="1" stop-color="#86F29D"/>
</linearGradient>
</defs>
</svg>
