<svg width="25" height="24" viewBox="0 0 25 24" fill="none" xmlns="http://www.w3.org/2000/svg">
<g id="vuesax/linear/profile-circle">
<g id="profile-circle">
<path id="Vector" d="M12.6197 12.78C12.5497 12.77 12.4597 12.77 12.3797 12.78C10.6197 12.72 9.21973 11.28 9.21973 9.50998C9.21973 7.69998 10.6797 6.22998 12.4997 6.22998C14.3097 6.22998 15.7797 7.69998 15.7797 9.50998C15.7697 11.28 14.3797 12.72 12.6197 12.78Z" stroke="#868B90" stroke-width="1.5" stroke-linecap="round" stroke-linejoin="round"/>
<path id="Vector_2" d="M19.2398 19.3801C17.4598 21.0101 15.0998 22.0001 12.4998 22.0001C9.89977 22.0001 7.53977 21.0101 5.75977 19.3801C5.85977 18.4401 6.45977 17.5201 7.52977 16.8001C10.2698 14.9801 14.7498 14.9801 17.4698 16.8001C18.5398 17.5201 19.1398 18.4401 19.2398 19.3801Z" stroke="#868B90" stroke-width="1.5" stroke-linecap="round" stroke-linejoin="round"/>
<path id="Vector_3" d="M12.5 22C18.0228 22 22.5 17.5228 22.5 12C22.5 6.47715 18.0228 2 12.5 2C6.97715 2 2.5 6.47715 2.5 12C2.5 17.5228 6.97715 22 12.5 22Z" stroke="#868B90" stroke-width="1.5" stroke-linecap="round" stroke-linejoin="round"/>
</g>
</g>
</svg>
