<svg width="20" height="20" viewBox="0 0 20 20" fill="none" xmlns="http://www.w3.org/2000/svg">
<path d="M15.6832 3.9054C16.5157 4.6818 17.1804 5.62056 17.6362 6.66377C18.092 7.70698 18.3291 8.8325 18.3331 9.97092C18.3371 11.1093 18.1078 12.2365 17.6593 13.2829C17.2108 14.3292 16.5527 15.2726 15.7256 16.0548M13.4098 6.34324C13.9094 6.80908 14.3082 7.37234 14.5817 7.99826C14.8551 8.62419 14.9974 9.29951 14.9998 9.98256C15.0022 10.6656 14.8646 11.3419 14.5955 11.9697C14.3264 12.5975 13.9316 13.1636 13.4353 13.6329M6.23342 12.8391L7.62945 14.5667C8.35719 15.4672 8.72107 15.9175 9.03986 15.9665C9.31583 16.009 9.59471 15.9104 9.78269 15.7039C9.99984 15.4654 9.99984 14.8865 9.99984 13.7286V6.27139C9.99984 5.11352 9.99984 4.53458 9.78269 4.29609C9.59471 4.08963 9.31583 3.99104 9.03986 4.03347C8.72107 4.08249 8.35719 4.53278 7.62945 5.43337L6.23342 7.16095C6.0864 7.34289 6.01289 7.43385 5.92194 7.49931C5.84136 7.5573 5.75106 7.60043 5.65531 7.62666C5.54723 7.65626 5.43027 7.65626 5.19636 7.65626H4.01025C3.38009 7.65626 3.065 7.65626 2.81037 7.74038C2.30926 7.90592 1.91617 8.29902 1.75062 8.80012C1.6665 9.05476 1.6665 9.36984 1.6665 10C1.6665 10.6302 1.6665 10.9453 1.75062 11.1999C1.91617 11.701 2.30926 12.0941 2.81037 12.2596C3.065 12.3438 3.38009 12.3438 4.01025 12.3438H5.19636C5.43027 12.3438 5.54723 12.3438 5.65531 12.3734C5.75106 12.3996 5.84136 12.4427 5.92194 12.5007C6.01289 12.5662 6.0864 12.6571 6.23342 12.8391Z" stroke="#126BF6" stroke-width="1.5" stroke-linecap="round" stroke-linejoin="round"/>
</svg>
