<svg width="121" height="120" viewBox="0 0 121 120" fill="none" xmlns="http://www.w3.org/2000/svg">
<path d="M37.262 66.5099C32.288 56.5559 27.7778 46.6961 21.1748 29.8877C21.1748 29.8877 19.8056 31.7861 19.8086 31.7735C23.9516 42.3209 29.1446 54.9773 35.6624 67.9283C45.878 88.4747 70.4702 88.8371 81.8144 71.8805C69.8318 87.0893 46.7 85.3967 37.262 66.5099Z" fill="#126BF6"/>
<path d="M37.262 66.5099C32.288 56.5559 27.7778 46.6961 21.1748 29.8877C21.1748 29.8877 19.8056 31.7861 19.8086 31.7735C23.9516 42.3209 29.1446 54.9773 35.6624 67.9283C45.878 88.4747 70.4702 88.8371 81.8144 71.8805C69.8318 87.0893 46.7 85.3967 37.262 66.5099Z" stroke="#120071" stroke-linecap="round" stroke-linejoin="round"/>
<path d="M39.8206 46.5538C39.7945 46.1966 39.8422 45.8378 39.9608 45.4998C40.0794 45.1618 40.2662 44.8518 40.5098 44.5891C40.7533 44.3264 41.0483 44.1167 41.3764 43.973C41.7045 43.8292 42.0586 43.7546 42.4168 43.7536H61.2328V3.00342C61.2328 3.00342 21.1462 29.9998 21.1738 29.8876C27.7768 46.696 32.287 56.5558 37.261 66.5098C42.4618 76.9168 51.8476 82.12 61.2328 82.12V73.183C49.9918 72.6706 40.8646 61.1662 39.8206 46.5544V46.5538Z" fill="#6FDBFB"/>
<path d="M61.2328 3.00342C61.2328 3.00342 21.1462 29.9998 21.1738 29.8876C27.7768 46.696 32.287 56.5558 37.261 66.5098C42.4618 76.9168 51.8476 82.12 61.2328 82.12C70.618 82.12 80.0038 76.9162 85.204 66.5098C90.1306 56.653 94.6492 46.7998 101.292 29.8876C101.319 29.9998 61.2328 3.00342 61.2328 3.00342Z" stroke="#120071" stroke-linecap="round" stroke-linejoin="round"/>
<path d="M61.2344 43.7536V3.00342" stroke="#120071" stroke-linecap="round" stroke-linejoin="round"/>
<path d="M61.2344 82.1201V73.1831" stroke="#120071" stroke-linecap="round" stroke-linejoin="round"/>
<path d="M81.6183 43.7539H42.4197C42.0614 43.7547 41.7071 43.8292 41.3788 43.9729C41.0506 44.1166 40.7555 44.3264 40.5119 44.5892C40.2684 44.852 40.0815 45.1621 39.9631 45.5003C39.8446 45.8384 39.7971 46.1974 39.8235 46.5547C40.8915 61.5043 50.4219 73.2001 62.0193 73.2001C73.6167 73.2001 83.1465 61.5031 84.2145 46.5535C84.2406 46.1962 84.1929 45.8374 84.0744 45.4994C83.9559 45.1613 83.7691 44.8513 83.5257 44.5885C83.2821 44.3259 82.987 44.1163 82.6588 43.9727C82.3307 43.8291 81.9765 43.7546 81.6183 43.7539Z" stroke="#120071" stroke-linecap="round" stroke-linejoin="round"/>
<path d="M81.3675 43.7543C81.3675 30.4691 72.7803 19.6997 62.1867 19.6997C51.5931 19.6997 43.0059 30.4691 43.0059 43.7543H51.9819C51.9819 34.8089 56.5521 27.5579 62.1897 27.5579C67.8273 27.5579 72.3975 34.8089 72.3975 43.7543H81.3675Z" fill="#126BF6"/>
<path d="M81.3675 43.7543C81.3675 30.4691 72.7803 19.6997 62.1867 19.6997C51.5931 19.6997 43.0059 30.4691 43.0059 43.7543H51.9819C51.9819 34.8089 56.5521 27.5579 62.1897 27.5579C67.8273 27.5579 72.3975 34.8089 72.3975 43.7543H81.3675Z" stroke="#120071" stroke-linecap="round" stroke-linejoin="round"/>
<path d="M67.3081 63.9137L62.8579 53.0399C63.3407 52.8804 63.7509 52.554 64.0148 52.1193C64.2787 51.6846 64.3791 51.1701 64.2979 50.6681C64.2154 50.1675 63.9577 49.7124 63.5708 49.3841C63.1839 49.0557 62.693 48.8755 62.1856 48.8755C61.6782 48.8755 61.1873 49.0557 60.8004 49.3841C60.4135 49.7124 60.1558 50.1675 60.0733 50.6681C59.9923 51.17 60.0927 51.6843 60.3565 52.119C60.6202 52.5536 61.0301 52.8801 61.5127 53.0399L57.0625 63.9137H67.3081Z" fill="#126BF6"/>
<path d="M67.3081 63.9137L62.8579 53.0399C63.3407 52.8804 63.7509 52.554 64.0148 52.1193C64.2787 51.6846 64.3791 51.1701 64.2979 50.6681C64.2154 50.1675 63.9577 49.7124 63.5708 49.3841C63.1839 49.0557 62.693 48.8755 62.1856 48.8755C61.6782 48.8755 61.1873 49.0557 60.8004 49.3841C60.4135 49.7124 60.1558 50.1675 60.0733 50.6681C59.9923 51.17 60.0927 51.6843 60.3565 52.119C60.6202 52.5536 61.0301 52.8801 61.5127 53.0399L57.0625 63.9137H67.3081Z" stroke="#120071" stroke-linecap="round" stroke-linejoin="round"/>
<path d="M24.2424 83.0679C18.591 82.9911 13.626 82.9269 9.49805 82.8369V105.141H24.2424V83.0679Z" stroke="#120071" stroke-linecap="round" stroke-linejoin="round"/>
<path d="M111.201 96.7277C110.321 94.8401 109.021 93.7277 106.138 93.8945C106.579 93.4362 106.871 92.8549 106.974 92.2274C107.078 91.5998 106.989 90.9555 106.719 90.3797C105.855 88.5263 104.209 87.7223 101.13 88.0817C101.374 87.3423 101.319 86.537 100.976 85.8377C100.003 83.7497 98.0365 82.9913 94.1479 83.7329C94.3562 82.9888 94.3008 82.1957 93.9913 81.4877C92.2765 76.9361 78.6601 82.9025 65.1877 87.9965C56.5249 91.2713 47.1055 80.1509 29.9383 82.6121C28.0504 82.866 26.1503 83.0182 24.2461 83.0681V105.143H31.9261C63.4405 120.693 75.1687 118.447 86.7877 112.494C95.2993 108.133 100.082 105.973 108.998 101.495C110.692 100.646 112.161 98.7911 111.201 96.7277Z" stroke="#120071" stroke-linecap="round" stroke-linejoin="round"/>
<path d="M54.3897 106.893C56.9415 107.079 72.2181 111.065 78.0957 112.126C83.8695 113.168 88.4289 104.686 80.6007 101.678C63.5817 95.1381 63.5937 89.8041 45.5547 86.7285" stroke="#120071" stroke-linecap="round" stroke-linejoin="round"/>
<path d="M82.7715 102.867C97.8123 95.3609 101.86 94.1405 106.134 93.8945" stroke="#120071" stroke-linecap="round" stroke-linejoin="round"/>
<path d="M73.8652 98.7669C87.9412 92.1861 96.2566 88.6449 101.127 88.0815" stroke="#120071" stroke-linecap="round" stroke-linejoin="round"/>
<path d="M69.0293 93.4343C69.6665 93.1991 72.7109 92.0117 73.3301 91.7279C83.3735 87.1295 89.9057 84.5417 94.1441 83.7329" stroke="#120071" stroke-linecap="round" stroke-linejoin="round"/>
<path d="M16.8716 95.5029C16.1102 95.5028 15.3798 95.8051 14.8413 96.3434C14.3028 96.8817 14.0002 97.6119 14 98.3733C13.9998 99.1348 14.3022 99.8651 14.8405 100.404C15.3788 100.942 16.109 101.245 16.8704 101.245C17.2474 101.245 17.6208 101.171 17.9691 101.027C18.3175 100.882 18.634 100.671 18.9007 100.404C19.1673 100.138 19.3789 99.8215 19.5232 99.4732C19.6676 99.1249 19.7419 98.7516 19.742 98.3745C19.7421 97.9975 19.6679 97.6242 19.5237 97.2758C19.3795 96.9274 19.1681 96.6109 18.9015 96.3443C18.635 96.0776 18.3185 95.8661 17.9702 95.7217C17.6219 95.5774 17.2486 95.503 16.8716 95.5029Z" stroke="#120071" stroke-linecap="round" stroke-linejoin="round"/>
<path d="M80.2305 6.50365L82.5843 10.3862L85.3527 4.58545" stroke="#120071" stroke-linecap="round" stroke-linejoin="round"/>
<path d="M10.1914 53.3262H17.806" stroke="#120071" stroke-linecap="round" stroke-linejoin="round"/>
<path d="M13.998 57.1335V49.5195" stroke="#120071" stroke-linecap="round" stroke-linejoin="round"/>
<path d="M98.6016 68.4297L103.985 73.8135" stroke="#120071" stroke-linecap="round" stroke-linejoin="round"/>
<path d="M98.6016 73.8135L103.985 68.4297" stroke="#120071" stroke-linecap="round" stroke-linejoin="round"/>
<path d="M25.6758 109.753L28.422 112.499" stroke="#120071" stroke-linecap="round" stroke-linejoin="round"/>
<path d="M25.6758 112.499L28.422 109.753" stroke="#120071" stroke-linecap="round" stroke-linejoin="round"/>
<path d="M33.7148 34.0688H37.8686" stroke="#120071" stroke-linecap="round" stroke-linejoin="round"/>
<path d="M35.793 36.1454V31.9922" stroke="#120071" stroke-linecap="round" stroke-linejoin="round"/>
</svg>
