<svg width="25" height="24" viewBox="0 0 25 24" fill="none" xmlns="http://www.w3.org/2000/svg">
<path fill-rule="evenodd" clip-rule="evenodd" d="M16.7892 8C17.7523 8 18.2338 8 18.6244 8.17521C18.9686 8.32965 19.2622 8.57833 19.4711 8.89253C19.7082 9.24897 19.7873 9.72395 19.9457 10.6739L20.879 16.2739C21.0926 17.5559 21.1995 18.1968 21.0139 18.6964C20.8511 19.1347 20.5398 19.5022 20.1342 19.7349C19.672 20 19.0221 20 17.7225 20H7.27747C5.97785 20 5.32804 20 4.8658 19.7349C4.46017 19.5022 4.14889 19.1347 3.98607 18.6964C3.80053 18.1968 3.90736 17.5559 4.12101 16.2739L5.05435 10.6739C5.21267 9.72395 5.29184 9.24897 5.52887 8.89253C5.73781 8.57833 6.03137 8.32965 6.37564 8.17521C6.7662 8 7.24773 8 8.21081 8H16.7892Z" stroke="#A3A3A3" stroke-width="1.5" stroke-linecap="round" stroke-linejoin="round"/>
<path d="M16.5 8C16.5 5.79086 14.7091 4 12.5 4C10.2909 4 8.5 5.79086 8.5 8" stroke="#A3A3A3" stroke-width="1.5" stroke-linecap="round" stroke-linejoin="round"/>
</svg>
