<svg width="25" height="24" viewBox="0 0 25 24" fill="none" xmlns="http://www.w3.org/2000/svg">
<g id="vuesax/bold/shop">
<g id="shop">
<path id="Vector" d="M22.8596 8.27L22.5696 5.5C22.1496 2.48 20.7796 1.25 17.8497 1.25H15.4896H14.0097H10.9697H9.48965H7.08965C4.14965 1.25 2.78965 2.48 2.35965 5.53L2.08965 8.28C1.98965 9.35 2.27965 10.39 2.90965 11.2C3.66965 12.19 4.83965 12.75 6.13965 12.75C7.39965 12.75 8.60965 12.12 9.36965 11.11C10.0496 12.12 11.2097 12.75 12.4997 12.75C13.7896 12.75 14.9197 12.15 15.6096 11.15C16.3797 12.14 17.5696 12.75 18.8096 12.75C20.1396 12.75 21.3396 12.16 22.0896 11.12C22.6896 10.32 22.9597 9.31 22.8596 8.27Z" fill="#20242A"/>
<path id="Vector_2" d="M11.8501 16.6602C10.5801 16.7902 9.62012 17.8702 9.62012 19.1502V21.8902C9.62012 22.1602 9.84012 22.3802 10.1101 22.3802H14.8801C15.1501 22.3802 15.3701 22.1602 15.3701 21.8902V19.5002C15.3801 17.4102 14.1501 16.4202 11.8501 16.6602Z" fill="#20242A"/>
<path id="Vector_3" d="M21.8699 14.4001V17.3801C21.8699 20.1401 19.6299 22.3801 16.8699 22.3801C16.5999 22.3801 16.3799 22.1601 16.3799 21.8901V19.5001C16.3799 18.2201 15.9899 17.2201 15.2299 16.5401C14.5599 15.9301 13.6499 15.6301 12.5199 15.6301C12.2699 15.6301 12.0199 15.6401 11.7499 15.6701C9.96988 15.8501 8.61988 17.3501 8.61988 19.1501V21.8901C8.61988 22.1601 8.39988 22.3801 8.12988 22.3801C5.36988 22.3801 3.12988 20.1401 3.12988 17.3801V14.4201C3.12988 13.7201 3.81988 13.2501 4.46988 13.4801C4.73988 13.5701 5.00988 13.6401 5.28988 13.6801C5.40988 13.7001 5.53988 13.7201 5.65988 13.7201C5.81988 13.7401 5.97988 13.7501 6.13988 13.7501C7.29988 13.7501 8.43988 13.3201 9.33988 12.5801C10.1999 13.3201 11.3199 13.7501 12.4999 13.7501C13.6899 13.7501 14.7899 13.3401 15.6499 12.6001C16.5499 13.3301 17.6699 13.7501 18.8099 13.7501C18.9899 13.7501 19.1699 13.7401 19.3399 13.7201C19.4599 13.7101 19.5699 13.7001 19.6799 13.6801C19.9899 13.6401 20.2699 13.5501 20.5499 13.4601C21.1999 13.2401 21.8699 13.7201 21.8699 14.4001Z" fill="#20242A"/>
</g>
</g>
</svg>
