<svg width="30" height="30" viewBox="0 0 30 30" fill="none" xmlns="http://www.w3.org/2000/svg">
<path d="M6.25 21.25C6.89104 21.25 7.419 21.7328 7.49121 22.3545L7.5 22.5127C7.49989 23.203 6.94029 23.7627 6.25 23.7627C5.60896 23.7627 5.081 23.2799 5.00879 22.6582L5 22.5C5 21.8096 5.55964 21.25 6.25 21.25ZM25 21.25C25.6904 21.25 26.25 21.8096 26.25 22.5C26.25 23.141 25.7672 23.669 25.1455 23.7412L25 23.75H11.25C10.5596 23.75 10 23.1904 10 22.5C10 21.859 10.4828 21.331 11.1045 21.2588L11.25 21.25H25ZM6.25 13.75C6.89104 13.75 7.419 14.2328 7.49121 14.8545L7.5 15.0127C7.49989 15.703 6.94029 16.2627 6.25 16.2627C5.60896 16.2627 5.081 15.7799 5.00879 15.1582L5 15C5 14.3096 5.55964 13.75 6.25 13.75ZM25 13.75C25.6904 13.75 26.25 14.3096 26.25 15C26.25 15.641 25.7672 16.169 25.1455 16.2412L25 16.25H11.25C10.5596 16.25 10 15.6904 10 15C10 14.359 10.4828 13.831 11.1045 13.7588L11.25 13.75H25ZM6.25 6.25C6.89104 6.25 7.419 6.73282 7.49121 7.35449L7.5 7.5127C7.49989 8.20296 6.94029 8.7627 6.25 8.7627C5.60896 8.7627 5.081 8.27988 5.00879 7.6582L5 7.5C5 6.80964 5.55964 6.25 6.25 6.25ZM25 6.25C25.6904 6.25 26.25 6.80964 26.25 7.5C26.25 8.14104 25.7672 8.669 25.1455 8.74121L25 8.75H11.25C10.5596 8.75 10 8.19036 10 7.5C10 6.85896 10.4828 6.331 11.1045 6.25879L11.25 6.25H25Z" fill="#0A0A0A"/>
</svg>
