<svg width="30" height="30" viewBox="0 0 30 30" fill="none" xmlns="http://www.w3.org/2000/svg">
<path fill-rule="evenodd" clip-rule="evenodd" d="M15 5C10.1675 5 6.25 8.91751 6.25 13.75C6.25 16.5076 7.92009 19.085 10.2561 21.1095L14.5579 24.8377C14.8116 25.0576 15.1884 25.0576 15.4421 24.8377L19.7439 21.1095C22.0799 19.085 23.75 16.5076 23.75 13.75C23.75 8.91751 19.8325 5 15 5ZM3.75 13.75C3.75 7.5368 8.7868 2.5 15 2.5C21.2132 2.5 26.25 7.5368 26.25 13.75C26.25 17.533 23.9878 20.7397 21.3812 22.9988L17.0794 26.727C15.886 27.7612 14.114 27.7612 12.9206 26.727L8.61882 22.9988C6.01221 20.7397 3.75 17.533 3.75 13.75Z" fill="#0A0A0A"/>
<path d="M17.5 13.75C17.5 15.1307 16.3807 16.25 15 16.25C13.6193 16.25 12.5 15.1307 12.5 13.75C12.5 12.3693 13.6193 11.25 15 11.25C16.3807 11.25 17.5 12.3693 17.5 13.75Z" fill="#0A0A0A"/>
</svg>
