<svg width="16" height="18" viewBox="0 0 16 18" fill="none" xmlns="http://www.w3.org/2000/svg">
<path d="M1.33301 6.66602H14.6663M1.33301 6.66602V13.9995C1.33301 14.9329 1.33301 15.3994 1.51466 15.7559C1.67445 16.0695 1.92924 16.3247 2.24284 16.4845C2.59901 16.666 3.0655 16.666 3.9971 16.666H12.0022C12.9338 16.666 13.3997 16.666 13.7558 16.4845C14.0694 16.3247 14.3251 16.0695 14.4849 15.7559C14.6663 15.3997 14.6663 14.9339 14.6663 14.0023V6.66602M1.33301 6.66602V5.99951C1.33301 5.06609 1.33301 4.59903 1.51466 4.24251C1.67445 3.92891 1.92924 3.67413 2.24284 3.51434C2.59936 3.33268 3.06642 3.33268 3.99984 3.33268H4.66634M14.6663 6.66602V5.99677C14.6663 5.06518 14.6663 4.59868 14.4849 4.24251C14.3251 3.92891 14.0694 3.67413 13.7558 3.51434C13.3993 3.33268 12.9333 3.33268 11.9998 3.33268H11.333M4.66634 3.33268H11.333M4.66634 3.33268V1.66602M11.333 3.33268V1.66602M10.4997 9.99935L7.16634 13.3327L5.49967 11.666" stroke="#126BF6" stroke-width="1.5" stroke-linecap="round" stroke-linejoin="round"/>
</svg>
