<svg width="121" height="120" viewBox="0 0 121 120" fill="none" xmlns="http://www.w3.org/2000/svg">
<path d="M51.4243 98.7354L31.1641 103.173V110.576H89.2279L51.4243 104.852V98.7354Z" fill="#6FDBFB"/>
<path d="M46.2859 48.1549C48.0301 47.7702 49.8547 48.0277 51.4243 48.8803V19.3879L89.2279 9.42432H31.1641V51.4675L46.2859 48.1549Z" fill="#6FDBFB"/>
<path d="M31.1641 51.4675V9.42492L89.2279 9.42432V110.576H31.1641V106.048" stroke="#120071" stroke-linecap="round" stroke-linejoin="round"/>
<path d="M51.4238 48.8803V19.3879L89.2274 9.42432V110.576L51.4238 104.853V101.611" stroke="#120071" stroke-linecap="round" stroke-linejoin="round"/>
<path d="M57.0944 97.4936L22.3034 105.114C21.3481 105.324 20.361 105.343 19.3984 105.171C18.4357 104.999 17.5164 104.638 16.693 104.111C15.8696 103.583 15.1582 102.899 14.5994 102.096C14.0407 101.294 13.6455 100.389 13.4366 99.4334L5.81657 64.6424C5.42988 62.8899 5.69165 61.0567 6.55337 59.4824C6.01548 60.3882 5.4447 61.2739 4.84217 62.138C4.25305 62.9788 3.84496 63.9327 3.64377 64.9394C3.44257 65.9461 3.45265 66.9836 3.67337 67.9862L11.2934 102.78C11.5025 103.736 11.8978 104.64 12.4567 105.443C13.0155 106.245 13.727 106.93 14.5504 107.457C15.3738 107.985 16.2931 108.345 17.2558 108.517C18.2184 108.689 19.2055 108.67 20.1608 108.461L54.9512 100.841C55.9544 100.623 56.9012 100.198 57.7318 99.5946C58.5623 98.991 59.2583 98.2214 59.7758 97.3346C60.3088 96.4256 60.8752 95.5366 61.4738 94.6694C60.4035 96.1094 58.8476 97.1127 57.0944 97.4936Z" fill="#126BF6"/>
<path d="M57.0944 97.4936L22.3034 105.114C21.3481 105.324 20.361 105.343 19.3984 105.171C18.4357 104.999 17.5164 104.638 16.693 104.111C15.8696 103.583 15.1582 102.899 14.5994 102.096C14.0407 101.294 13.6455 100.389 13.4366 99.4334L5.81657 64.6424C5.42988 62.8899 5.69165 61.0567 6.55337 59.4824C6.01548 60.3882 5.4447 61.2739 4.84217 62.138C4.25305 62.9788 3.84496 63.9327 3.64377 64.9394C3.44257 65.9461 3.45265 66.9836 3.67337 67.9862L11.2934 102.78C11.5025 103.736 11.8978 104.64 12.4567 105.443C13.0155 106.245 13.727 106.93 14.5504 107.457C15.3738 107.985 16.2931 108.345 17.2558 108.517C18.2184 108.689 19.2055 108.67 20.1608 108.461L54.9512 100.841C55.9544 100.623 56.9012 100.198 57.7318 99.5946C58.5623 98.991 59.2583 98.2214 59.7758 97.3346C60.3088 96.4256 60.8752 95.5366 61.4738 94.6694C60.4035 96.1094 58.8476 97.1127 57.0944 97.4936Z" stroke="#120071" stroke-linecap="round" stroke-linejoin="round"/>
<path d="M56.1575 58.4208L55.1537 53.8356C54.7309 51.9065 53.5593 50.2242 51.8964 49.1589C50.2334 48.0936 48.2155 47.7324 46.2863 48.1548L11.4953 55.7748C9.56622 56.1974 7.88405 57.3689 6.8188 59.0318C5.75356 60.6946 5.39251 62.7125 5.81507 64.6416L13.4351 99.4326C13.7502 100.871 14.4848 102.184 15.546 103.206C16.6073 104.227 17.9475 104.911 19.3973 105.17C20.36 105.343 21.3472 105.323 22.3025 105.114L57.0935 97.494C58.5323 97.1793 59.8454 96.4448 60.8665 95.3834C61.8877 94.3221 62.5711 92.9817 62.8301 91.5318C63.0023 90.5693 62.9831 89.5823 62.7737 88.6272L59.8745 75.3888" stroke="#120071" stroke-linecap="round" stroke-linejoin="round"/>
<path d="M43.953 87.9805L34.8 71.7805C35.6671 71.2227 36.3105 70.3779 36.6179 69.3939C36.9252 68.4098 36.877 67.349 36.4815 66.3969C36.086 65.4448 35.3685 64.6619 34.4544 64.1852C33.5403 63.7085 32.4877 63.5682 31.4806 63.7889C30.4735 64.0096 29.576 64.5772 28.945 65.3925C28.314 66.2078 27.9896 67.2189 28.0285 68.2491C28.0674 69.2794 28.4672 70.2632 29.1579 71.0285C29.8486 71.7939 30.7864 72.2922 31.8072 72.4363L30.2652 90.9817L43.953 87.9805Z" fill="#126BF6"/>
<path d="M43.953 87.9805L34.8 71.7805C35.6671 71.2227 36.3105 70.3779 36.6179 69.3939C36.9252 68.4098 36.877 67.349 36.4815 66.3969C36.086 65.4448 35.3685 64.6619 34.4544 64.1852C33.5403 63.7085 32.4877 63.5682 31.4806 63.7889C30.4735 64.0096 29.576 64.5772 28.945 65.3925C28.314 66.2078 27.9896 67.2189 28.0285 68.2491C28.0674 69.2794 28.4672 70.2632 29.1579 71.0285C29.8486 71.7939 30.7864 72.2922 31.8072 72.4363L30.2652 90.9817L43.953 87.9805Z" stroke="#120071" stroke-linecap="round" stroke-linejoin="round"/>
<path d="M59.8002 64.6803L86.415 50.2437L82.9632 43.8813L42.435 65.8647C42.017 66.0914 41.6479 66.3982 41.3486 66.7676C41.0493 67.137 40.8258 67.5617 40.6908 68.0175C40.4869 68.704 40.4913 69.4354 40.7033 70.1194C40.9153 70.8033 41.3254 71.409 41.8817 71.8598C42.438 72.3106 43.1156 72.5862 43.8286 72.6518C44.5416 72.7174 45.2581 72.5701 45.8874 72.2283L47.634 71.2809L50.595 76.7409C50.8409 77.1967 51.2375 77.5529 51.717 77.7487C52.1965 77.9444 52.7291 77.9676 53.2238 77.8142C53.7184 77.6608 54.1445 77.3404 54.4291 76.9077C54.7137 76.475 54.8392 75.9569 54.7842 75.4419C54.7535 75.1499 54.6657 74.8667 54.5256 74.6085L51.5646 69.1485L55.3704 67.0839L59.9808 75.5829C60.2095 76.0365 60.57 76.4103 61.0148 76.6555C61.4597 76.9007 61.9683 77.0058 62.4739 76.957C62.9795 76.9083 63.4586 76.7079 63.8484 76.3822C64.2382 76.0565 64.5205 75.6206 64.6584 75.1317C64.7497 74.8068 64.7748 74.4669 64.7321 74.1321C64.6894 73.7973 64.5799 73.4745 64.41 73.1829L59.8002 64.6803Z" stroke="#120071" stroke-linecap="round" stroke-linejoin="round"/>
<path d="M105.585 40.2668L101.489 32.7152C100.814 31.4648 99.899 30.3599 98.7965 29.4636C97.694 28.5672 96.4256 27.8972 95.0638 27.4917C93.702 27.0863 92.2736 26.9534 90.8604 27.1007C89.4472 27.248 88.077 27.6726 86.8281 28.3502C85.5792 29.0277 84.4762 29.945 83.5822 31.0494C82.6883 32.1538 82.021 33.4237 81.6184 34.7863C81.2159 36.149 81.0861 37.5776 81.2364 38.9905C81.3868 40.4034 81.8143 41.7727 82.4945 43.0202L86.5907 50.5718C87.9718 53.063 90.2808 54.9081 93.0153 55.7057C95.7498 56.5033 98.6886 56.1888 101.192 54.8306C103.696 53.4724 105.562 51.1805 106.385 48.4534C107.208 45.7263 106.92 42.7847 105.585 40.2686V40.2668ZM96.2729 45.7598C95.8744 45.9758 95.4063 46.0248 94.9717 45.8958C94.5371 45.7669 94.1714 45.4706 93.9551 45.0722L91.1189 39.8432C90.9032 39.4445 90.8543 38.9765 90.9828 38.5418C91.0462 38.3264 91.1516 38.1257 91.293 37.9512C91.4344 37.7768 91.6089 37.632 91.8065 37.5254C92.1038 37.3644 92.442 37.2951 92.7786 37.3262C93.1152 37.3573 93.435 37.4873 93.6977 37.7C93.8723 37.8416 94.0175 38.0156 94.1243 38.213L96.9605 43.4402C97.068 43.6375 97.1354 43.8541 97.1589 44.0775C97.1823 44.301 97.1614 44.5268 97.0973 44.7422C97.0338 44.9578 96.9283 45.1587 96.7868 45.3333C96.6453 45.508 96.4707 45.6529 96.2729 45.7598Z" fill="#126BF6"/>
<path d="M105.585 40.2668L101.489 32.7152C100.814 31.4648 99.899 30.3599 98.7965 29.4636C97.694 28.5672 96.4256 27.8972 95.0638 27.4917C93.702 27.0863 92.2736 26.9534 90.8604 27.1007C89.4472 27.248 88.077 27.6726 86.8281 28.3502C85.5792 29.0277 84.4762 29.945 83.5822 31.0494C82.6883 32.1538 82.021 33.4237 81.6184 34.7863C81.2159 36.149 81.0861 37.5776 81.2364 38.9905C81.3868 40.4034 81.8143 41.7727 82.4945 43.0202L86.5907 50.5718C87.9718 53.063 90.2808 54.9081 93.0153 55.7057C95.7498 56.5033 98.6886 56.1888 101.192 54.8306C103.696 53.4724 105.562 51.1805 106.385 48.4534C107.208 45.7263 106.92 42.7847 105.585 40.2686V40.2668ZM96.2729 45.7598C95.8744 45.9758 95.4063 46.0248 94.9717 45.8958C94.5371 45.7669 94.1714 45.4706 93.9551 45.0722L91.1189 39.8432C90.9032 39.4445 90.8543 38.9765 90.9828 38.5418C91.0462 38.3264 91.1516 38.1257 91.293 37.9512C91.4344 37.7768 91.6089 37.632 91.8065 37.5254C92.1038 37.3644 92.442 37.2951 92.7786 37.3262C93.1152 37.3573 93.435 37.4873 93.6977 37.7C93.8723 37.8416 94.0175 38.0156 94.1243 38.213L96.9605 43.4402C97.068 43.6375 97.1354 43.8541 97.1589 44.0775C97.1823 44.301 97.1614 44.5268 97.0973 44.7422C97.0338 44.9578 96.9283 45.1587 96.7868 45.3333C96.6453 45.508 96.4707 45.6529 96.2729 45.7598Z" stroke="#120071" stroke-linecap="round" stroke-linejoin="round"/>
<path d="M8.24023 22.2495H15.2548" stroke="#120071" stroke-linecap="round" stroke-linejoin="round"/>
<path d="M11.748 25.7567V18.7427" stroke="#120071" stroke-linecap="round" stroke-linejoin="round"/>
<path d="M100.615 100.328L105.575 105.288" stroke="#120071" stroke-linecap="round" stroke-linejoin="round"/>
<path d="M100.615 105.288L105.575 100.328" stroke="#120071" stroke-linecap="round" stroke-linejoin="round"/>
<path d="M114.969 70.4648L117.498 72.9944" stroke="#120071" stroke-linecap="round" stroke-linejoin="round"/>
<path d="M114.969 72.9944L117.498 70.4648" stroke="#120071" stroke-linecap="round" stroke-linejoin="round"/>
<path d="M98.375 21.3446L100.544 24.9212L103.094 19.5776" stroke="#120071" stroke-linecap="round" stroke-linejoin="round"/>
<path d="M34.0742 37.9131H37.9004" stroke="#120071" stroke-linecap="round" stroke-linejoin="round"/>
<path d="M35.9883 39.8261V36.0005" stroke="#120071" stroke-linecap="round" stroke-linejoin="round"/>
</svg>
