<svg width="24" height="24" viewBox="0 0 24 24" fill="none" xmlns="http://www.w3.org/2000/svg">
<g id="Smiley-Very-Happy-2--Streamline-Core">
<g id="smiley-very-happy-2">
<path id="Vector 559" d="M10 9C9.8125 8.39063 9.4 8 8.99999 8C8.6 8 8.1875 8.39063 8 9" stroke="#20242A" stroke-width="1.5" stroke-linecap="round" stroke-linejoin="round"/>
<path id="Vector 558" d="M14 9C14.1875 8.39063 14.6 8 15 8C15.4 8 15.8125 8.39063 16 9" stroke="#20242A" stroke-width="1.5" stroke-linecap="round" stroke-linejoin="round"/>
<path id="Ellipse 650" d="M12 18C14.7614 18 17 15.7614 17 13H7C7 15.7614 9.23857 18 12 18Z" stroke="#20242A" stroke-width="1.5" stroke-linecap="round" stroke-linejoin="round"/>
<path id="Vector" d="M12 21C16.9706 21 21 16.9706 21 12C21 7.02944 16.9706 3 12 3C7.02944 3 3 7.02944 3 12C3 16.9706 7.02944 21 12 21Z" stroke="#20242A" stroke-width="1.5" stroke-linecap="round" stroke-linejoin="round"/>
</g>
</g>
</svg>
